<svg id="calendar" xmlns="http://www.w3.org/2000/svg" width="20.177" height="20.177" viewBox="0 0 20.177 20.177">
  <g id="Group_90" data-name="Group 90">
    <g id="Group_89" data-name="Group 89">
      <path id="Path_210" data-name="Path 210" d="M17.812,1.576h-.946V0H15.29V1.576H4.887V0H3.31V1.576H2.364A2.367,2.367,0,0,0,0,3.941V17.812a2.367,2.367,0,0,0,2.364,2.364H17.812a2.367,2.367,0,0,0,2.364-2.364V3.941A2.367,2.367,0,0,0,17.812,1.576ZM18.6,17.812a.789.789,0,0,1-.788.788H2.364a.789.789,0,0,1-.788-.788V7.409H18.6Zm0-11.98H1.576V3.941a.789.789,0,0,1,.788-.788H3.31V4.729H4.887V3.153h10.4V4.729h1.576V3.153h.946a.789.789,0,0,1,.788.788Z" fill="#acb5bd"/>
    </g>
  </g>
  <g id="Group_92" data-name="Group 92" transform="translate(3.088 9.088)">
    <g id="Group_91" data-name="Group 91" transform="translate(0 0)">
      <rect id="Rectangle_684" data-name="Rectangle 684" width="2" height="2" fill="#acb5bd"/>
    </g>
  </g>
  <g id="Group_94" data-name="Group 94" transform="translate(6.088 9.088)">
    <g id="Group_93" data-name="Group 93" transform="translate(0 0)">
      <rect id="Rectangle_685" data-name="Rectangle 685" width="2" height="2" fill="#acb5bd"/>
    </g>
  </g>
  <g id="Group_96" data-name="Group 96" transform="translate(9.088 9.088)">
    <g id="Group_95" data-name="Group 95" transform="translate(0 0)">
      <rect id="Rectangle_686" data-name="Rectangle 686" width="2" height="2" fill="#acb5bd"/>
    </g>
  </g>
  <g id="Group_98" data-name="Group 98" transform="translate(12.088 9.088)">
    <g id="Group_97" data-name="Group 97" transform="translate(0 0)">
      <rect id="Rectangle_687" data-name="Rectangle 687" width="2" height="2" fill="#acb5bd"/>
    </g>
  </g>
  <g id="Group_100" data-name="Group 100" transform="translate(15.088 9.088)">
    <g id="Group_99" data-name="Group 99" transform="translate(0 0)">
      <rect id="Rectangle_688" data-name="Rectangle 688" width="2" height="2" fill="#acb5bd"/>
    </g>
  </g>
  <g id="Group_102" data-name="Group 102" transform="translate(3.088 12.088)">
    <g id="Group_101" data-name="Group 101" transform="translate(0 0)">
      <rect id="Rectangle_689" data-name="Rectangle 689" width="2" height="2" fill="#acb5bd"/>
    </g>
  </g>
  <g id="Group_104" data-name="Group 104" transform="translate(6.088 12.088)">
    <g id="Group_103" data-name="Group 103" transform="translate(0 0)">
      <rect id="Rectangle_690" data-name="Rectangle 690" width="2" height="2" fill="#acb5bd"/>
    </g>
  </g>
  <g id="Group_106" data-name="Group 106" transform="translate(9.088 12.088)">
    <g id="Group_105" data-name="Group 105" transform="translate(0 0)">
      <rect id="Rectangle_691" data-name="Rectangle 691" width="2" height="2" fill="#acb5bd"/>
    </g>
  </g>
  <g id="Group_108" data-name="Group 108" transform="translate(12.088 12.088)">
    <g id="Group_107" data-name="Group 107" transform="translate(0 0)">
      <rect id="Rectangle_692" data-name="Rectangle 692" width="2" height="2" fill="#acb5bd"/>
    </g>
  </g>
  <g id="Group_110" data-name="Group 110" transform="translate(3.088 15.088)">
    <g id="Group_109" data-name="Group 109" transform="translate(0 0)">
      <rect id="Rectangle_693" data-name="Rectangle 693" width="2" height="2" fill="#acb5bd"/>
    </g>
  </g>
  <g id="Group_112" data-name="Group 112" transform="translate(6.088 15.088)">
    <g id="Group_111" data-name="Group 111" transform="translate(0 0)">
      <rect id="Rectangle_694" data-name="Rectangle 694" width="2" height="2" fill="#acb5bd"/>
    </g>
  </g>
  <g id="Group_114" data-name="Group 114" transform="translate(9.088 15.088)">
    <g id="Group_113" data-name="Group 113" transform="translate(0 0)">
      <rect id="Rectangle_695" data-name="Rectangle 695" width="2" height="2" fill="#acb5bd"/>
    </g>
  </g>
  <g id="Group_116" data-name="Group 116" transform="translate(12.088 15.088)">
    <g id="Group_115" data-name="Group 115" transform="translate(0 0)">
      <rect id="Rectangle_696" data-name="Rectangle 696" width="2" height="2" fill="#acb5bd"/>
    </g>
  </g>
  <g id="Group_118" data-name="Group 118" transform="translate(15.088 12.088)">
    <g id="Group_117" data-name="Group 117" transform="translate(0 0)">
      <rect id="Rectangle_697" data-name="Rectangle 697" width="2" height="2" fill="#acb5bd"/>
    </g>
  </g>
</svg>
